<?xml version="1.0" encoding="UTF-8" standalone="no"?>
<!-- Created with Inkscape (http://www.inkscape.org/) -->

<svg
   xmlns:dc="http://purl.org/dc/elements/1.1/"
   xmlns:cc="http://creativecommons.org/ns#"
   xmlns:rdf="http://www.w3.org/1999/02/22-rdf-syntax-ns#"
   xmlns:svg="http://www.w3.org/2000/svg"
   xmlns="http://www.w3.org/2000/svg"
   xmlns:xlink="http://www.w3.org/1999/xlink"
   xmlns:sodipodi="http://sodipodi.sourceforge.net/DTD/sodipodi-0.dtd"
   xmlns:inkscape="http://www.inkscape.org/namespaces/inkscape"
   width="94.444679mm"
   height="94.444679mm"
   viewBox="0 0 94.444679 94.444679"
   version="1.1"
   id="svg6417"
   sodipodi:docname="rtn.svg"
   inkscape:export-filename="/home/maarten/programming/rescueteam_online/images/rtn2.png"
   inkscape:export-xdpi="53.788101"
   inkscape:export-ydpi="53.788101"
   inkscape:version="0.92.2 (5c3e80d, 2017-08-06)">
  <defs
     id="defs6411">
    <path
       style="fill:none;stroke:none;stroke-width:0.26458332px;stroke-linecap:butt;stroke-linejoin:miter;stroke-opacity:1"
       d="m 3.4962797,46.212795 c 4.6883675,-1.549676 9.5263143,-2.801151 11.4250653,-2.780597 1.643506,0.01779 7.581819,1.312089 12.103952,2.544361"
       id="path5673"
       inkscape:connector-curvature="0"
       sodipodi:nodetypes="csc" />
    <clipPath
       clipPathUnits="userSpaceOnUse"
       id="clipPath5410">
      <path
         style="fill:#ff0000;stroke:none;stroke-width:1.5;stroke-miterlimit:4;stroke-dasharray:none"
         d="M 105.83306,83.646791 A 39.484147,39.484147 0 0 0 66.349179,123.1312 39.484147,39.484147 0 0 0 105.83306,162.6151 39.484147,39.484147 0 0 0 145.31749,123.1312 39.484147,39.484147 0 0 0 105.83306,83.646791 Z m 0,11.958442 A 27.52575,27.52575 0 0 1 133.35904,123.1312 27.52575,27.52575 0 0 1 105.83306,150.65717 27.52575,27.52575 0 0 1 78.307608,123.1312 27.52575,27.52575 0 0 1 105.83306,95.605233 Z"
         id="path5412"
         inkscape:connector-curvature="0"
         mask="none" />
    </clipPath>
    <linearGradient
       inkscape:collect="always"
       xlink:href="#linearGradient5566"
       id="linearGradient5568"
       x1="185.37564"
       y1="126.52428"
       x2="185.13773"
       y2="160.16415"
       gradientUnits="userSpaceOnUse"
       gradientTransform="translate(-104.93675,-54.123874)" />
    <linearGradient
       inkscape:collect="always"
       id="linearGradient5566">
      <stop
         style="stop-color:#e0e0ff;stop-opacity:1"
         offset="0"
         id="stop5562" />
      <stop
         style="stop-color:#00038d;stop-opacity:1"
         offset="1"
         id="stop5564" />
    </linearGradient>
  </defs>
  <sodipodi:namedview
     id="base"
     pagecolor="#ffffff"
     bordercolor="#666666"
     borderopacity="1.0"
     inkscape:pageopacity="0.0"
     inkscape:pageshadow="2"
     inkscape:zoom="2.62"
     inkscape:cx="49.061675"
     inkscape:cy="204.30121"
     inkscape:document-units="mm"
     inkscape:current-layer="layer1"
     showgrid="false"
     fit-margin-top="0"
     fit-margin-left="0"
     fit-margin-right="0"
     fit-margin-bottom="0"
     inkscape:window-width="1920"
     inkscape:window-height="1016"
     inkscape:window-x="0"
     inkscape:window-y="27"
     inkscape:window-maximized="1" />
  <metadata
     id="metadata6414">
    <rdf:RDF>
      <cc:Work
         rdf:about="">
        <dc:format>image/svg+xml</dc:format>
        <dc:type
           rdf:resource="http://purl.org/dc/dcmitype/StillImage" />
        <dc:title />
      </cc:Work>
    </rdf:RDF>
  </metadata>
  <g
     inkscape:label="Layer 1"
     inkscape:groupmode="layer"
     id="layer1"
     transform="translate(-35.932423,-27.527661)">
    <g
       id="g4618"
       style="stroke-width:1.39999998;stroke-miterlimit:4;stroke-dasharray:none;fill:none"
       transform="translate(35.552936,-46.515106)">
      <ellipse
         ry="28.946449"
         rx="46.522339"
         cy="121.26511"
         cx="47.601826"
         id="path4606"
         style="fill:none;stroke:#000000;stroke-width:1.39999998;stroke-linecap:round;stroke-miterlimit:4;stroke-dasharray:none" />
      <ellipse
         transform="rotate(90)"
         style="fill:none;stroke:#000000;stroke-width:1.39999998;stroke-linecap:round;stroke-miterlimit:4;stroke-dasharray:none"
         id="ellipse4608"
         cx="121.26511"
         cy="-47.601826"
         rx="46.522339"
         ry="28.946449" />
    </g>
    <g
       id="g4614"
       transform="translate(-80.153407,-35.569072)"
       style="fill:#ff0000">
      <path
         style="fill:#ff0000;stroke:#000000;stroke-width:0.26458332px;stroke-linecap:round;stroke-linejoin:miter;stroke-opacity:1"
         d="m 165.36083,101.75497 -4.15425,0.0136 v -5.883716 l 2.07528,-2.07528 2.08779,2.07945 -0.009,5.865966"
         id="path4550"
         inkscape:connector-curvature="0"
         sodipodi:nodetypes="cccccc" />
      <path
         sodipodi:nodetypes="cccccc"
         inkscape:connector-curvature="0"
         id="path4564"
         d="m 161.21548,85.016484 4.15425,-0.0136 v 5.88372 l -2.07528,2.07528 -2.08779,-2.07945 0.009,-5.86597"
         style="fill:#ff0000;stroke:#000000;stroke-width:0.26458332px;stroke-linecap:round;stroke-linejoin:miter;stroke-opacity:1" />
      <path
         sodipodi:nodetypes="cccccc"
         inkscape:connector-curvature="0"
         id="path4566"
         d="m 154.72041,95.470214 -0.0136,-4.15426 h 5.88373 l 2.07528,2.07528 -2.07945,2.0878 -5.86598,-0.009"
         style="fill:#ff0000;stroke:#000000;stroke-width:0.26458332px;stroke-linecap:round;stroke-linejoin:miter;stroke-opacity:1" />
      <path
         style="fill:#ff0000;stroke:#000000;stroke-width:0.26458332px;stroke-linecap:round;stroke-linejoin:miter;stroke-opacity:1"
         d="m 171.89594,91.324864 0.0136,4.15426 h -5.88373 l -2.07528,-2.07528 2.07945,-2.0878 5.86598,0.009"
         id="path4587"
         inkscape:connector-curvature="0"
         sodipodi:nodetypes="cccccc" />
    </g>
    <path
       id="path5433"
       style="fill:url(#linearGradient5568);fill-opacity:1;stroke:#000000;stroke-width:0.40000001;stroke-linecap:butt;stroke-linejoin:miter;stroke-miterlimit:4;stroke-dasharray:none;stroke-opacity:1"
       d="m 49.077893,74.750005 c 0,10.77232 13.135545,30.972295 31.06309,30.972295 20.559277,0 37.090647,-21.239407 37.090647,-30.972295 m -13.63075,0 c 2.23885,0 4.52496,-2.4096 6.76381,-2.4096 2.30473,0 4.56222,2.4096 6.86694,2.4096 m -27.261495,0 c 2.238848,0 4.524959,-2.4096 6.763808,-2.4096 2.30473,0 4.562207,2.4096 6.866937,2.4096 m -27.261497,0 c 2.238852,0 4.52496,-2.4096 6.763811,-2.4096 2.30473,0 4.562211,2.4096 6.866941,2.4096 m -40.892242,0 c 2.23885,0 4.52495,-2.4096 6.76381,-2.4096 2.30472,0 4.56221,2.4096 6.866929,2.4096 m 0,0 c 2.238862,0 4.52496,-2.4096 6.763811,-2.4096 2.30473,0 4.56221,2.4096 6.86694,2.4096"
       inkscape:connector-curvature="0"
       sodipodi:nodetypes="csccsccsccsccsccsc" />
    <g
       id="g5667"
       transform="translate(51.184892,-72.499689)">
      <circle
         style="fill:#000000;fill-opacity:1;stroke:none;stroke-width:0.33262199;stroke-linecap:round;stroke-miterlimit:4;stroke-dasharray:none;stroke-opacity:0.5020576"
         id="circle5631"
         cx="40.020767"
         cy="144.25903"
         r="2.4725237" />
      <circle
         r="2.4725237"
         cy="144.39267"
         cx="50.778374"
         id="circle5633"
         style="fill:#000000;fill-opacity:1;stroke:none;stroke-width:0.33262199;stroke-linecap:round;stroke-miterlimit:4;stroke-dasharray:none;stroke-opacity:0.5020576" />
      <path
         style="fill:#000000;stroke:none;stroke-width:0.26458332px;stroke-linecap:butt;stroke-linejoin:miter;stroke-opacity:1"
         d="M 20.008971,151.4419 33.5729,144.89379 c 2.05463,-1.00226 3.04019,-0.10023 3.62484,0.7684 0.50113,1.00226 0.41761,2.73951 -0.88533,3.37428 l -14.298919,6.54811 c -1.5368,0.50113 -2.708229,-0.36876 -3.003077,-1.3411 -0.196051,-0.9351 -0.05634,-2.18471 0.998557,-2.80158 z"
         id="path5635"
         inkscape:connector-curvature="0"
         sodipodi:nodetypes="ccccccc" />
      <path
         sodipodi:nodetypes="ccccccc"
         inkscape:connector-curvature="0"
         id="path5637"
         d="m 31.70201,154.04778 13.56393,-6.54811 c 2.05463,-1.00226 3.04019,-0.10023 3.62484,0.7684 0.50113,1.00226 0.41761,2.73951 -0.88533,3.37428 l -14.29892,6.54811 c -1.5368,0.50113 -2.70823,-0.36876 -3.00307,-1.3411 -0.19606,-0.9351 -0.0563,-2.18471 0.99855,-2.80158 z"
         style="fill:#000000;stroke:none;stroke-width:0.26458332px;stroke-linecap:butt;stroke-linejoin:miter;stroke-opacity:1" />
      <path
         style="fill:#000000;stroke:none;stroke-width:0.13622425px;stroke-linecap:butt;stroke-linejoin:miter;stroke-opacity:1"
         d="m 20.908256,160.40935 7.186444,-3.45962 c 1.06961,-0.51035 1.58268,-0.051 1.88703,0.39127 0.2609,0.51036 0.21742,1.39498 -0.46088,1.71821 l -7.781683,3.29425 c -0.800034,0.25518 -1.197252,-0.0224 -1.35074,-0.51753 -0.102064,-0.47616 -0.0293,-1.11247 0.519829,-1.42658 z"
         id="path5639"
         inkscape:connector-curvature="0"
         sodipodi:nodetypes="ccccccc" />
      <path
         sodipodi:nodetypes="ccccccc"
         inkscape:connector-curvature="0"
         id="path5641"
         d="m 19.564432,168.35501 0.694066,-6.49546 c 0.05779,-1.03403 0.797638,-1.42724 1.176641,-1.45736 0.405882,0.0332 0.936659,0.46358 0.899758,1.11914 l -1.522591,6.89683 c -0.121321,0.71652 -0.214645,0.74228 -0.648862,0.71866 -0.35237,-0.0566 -0.596529,-0.22752 -0.599012,-0.78181 z"
         style="fill:#000000;stroke:none;stroke-width:0.10734075px;stroke-linecap:butt;stroke-linejoin:miter;stroke-opacity:1" />
      <path
         sodipodi:nodetypes="ccccccc"
         inkscape:connector-curvature="0"
         id="path5643"
         d="m 17.075968,169.96596 2.534043,-1.21992 c 0.37716,-0.17995 0.558076,-0.018 0.665395,0.13797 0.092,0.17997 0.162238,0.71337 -0.07695,0.82734 l -2.829502,0.94013 c -0.282104,0.0899 -0.422168,-0.008 -0.47629,-0.1825 -0.03599,-0.16789 -0.01037,-0.39226 0.183299,-0.50302 z"
         style="fill:#000000;stroke:none;stroke-width:0.04803462px;stroke-linecap:butt;stroke-linejoin:miter;stroke-opacity:1" />
      <path
         sodipodi:nodetypes="ccccccc"
         inkscape:connector-curvature="0"
         id="path5645"
         d="m 9.9369399,157.31183 7.1864441,-3.45962 c 1.06961,-0.51035 1.58268,-0.051 1.88703,0.39127 0.2609,0.51036 0.21742,1.39498 -0.46088,1.71821 l -7.781683,3.29425 c -0.8000341,0.25518 -1.1972521,-0.0224 -1.3507401,-0.51753 -0.102064,-0.47616 -0.0293,-1.11247 0.519829,-1.42658 z"
         style="fill:#000000;stroke:none;stroke-width:0.13622425px;stroke-linecap:butt;stroke-linejoin:miter;stroke-opacity:1" />
      <path
         style="fill:#000000;stroke:none;stroke-width:0.10734075px;stroke-linecap:butt;stroke-linejoin:miter;stroke-opacity:1"
         d="m 3.6921809,161.33193 5.520375,-3.49259 c 0.8460551,-0.59728 1.6138811,-0.26197 1.8729971,0.0162 0.22621,0.33864 0.218848,1.02193 -0.317702,1.4004 l -6.3497001,3.09287 c -0.63677,0.3502 -0.714946,0.29309 -0.966269,-0.0618 -0.174623,-0.31125 -0.192434,-0.60876 0.240299,-0.95515 z"
         id="path5647"
         inkscape:connector-curvature="0"
         sodipodi:nodetypes="ccccccc" />
      <path
         style="fill:#000000;stroke:none;stroke-width:0.03985246px;stroke-linecap:butt;stroke-linejoin:miter;stroke-opacity:1"
         d="m 1.1746159,161.05052 2.159608,0.88349 c 0.320434,0.1324 0.321146,0.33387 0.284701,0.48663 -0.05976,0.15668 -0.349383,0.49633 -0.552504,0.41228 l -2.15138498,-1.22098 c -0.212144,-0.12386 -0.229368,-0.2648 -0.152196,-0.39486 0.08345,-0.11547 0.23593,-0.22434 0.41177598,-0.16656 z"
         id="path5649"
         inkscape:connector-curvature="0"
         sodipodi:nodetypes="ccccccc" />
      <path
         sodipodi:nodetypes="cccccccc"
         inkscape:connector-curvature="0"
         id="path5651"
         d="m 39.237349,148.17389 7.162231,-0.33648 c 1.18378,-0.0564 1.47898,0.56576 1.58836,1.09137 0.043,0.57157 -0.33965,1.37036 -1.09019,1.40576 l -7.647011,-0.0465 c -0.83644,-0.0745 -1.0952,-0.4842 -1.04501,-1.00014 0.0902,-0.47854 0.40371,-1.03705 1.03162,-1.11405 z"
         style="fill:#000000;stroke:none;stroke-width:0.13622425px;stroke-linecap:butt;stroke-linejoin:miter;stroke-opacity:1" />
      <path
         style="fill:#000000;stroke:none;stroke-width:0.10734075px;stroke-linecap:butt;stroke-linejoin:miter;stroke-opacity:1"
         d="m 35.65577,146.35929 3.43957,1.99811 c 0.89339,0.52384 0.90516,1.36159 0.75879,1.71249 -0.21497,0.34587 -0.84031,0.62139 -1.40659,0.28905 l -3.41807,-2.91848 c -0.58194,-0.43528 -0.56221,-0.53006 -0.34282,-0.90552 0.21134,-0.28759 0.47493,-0.42669 0.96912,-0.17565 z"
         id="path5653"
         inkscape:connector-curvature="0"
         sodipodi:nodetypes="ccccccc" />
    </g>
    <path
       style="fill:#ffffff;stroke:#000000;stroke-width:1.5;stroke-miterlimit:4;stroke-dasharray:none"
       d="M 83.155023,35.265842 A 39.484147,39.484147 0 0 0 43.67061,74.750254 39.484147,39.484147 0 0 0 83.155023,114.23415 39.484147,39.484147 0 0 0 122.63892,74.750254 39.484147,39.484147 0 0 0 83.155023,35.265842 Z m 0,11.958445 A 27.52575,27.52575 0 0 1 110.68047,74.750254 27.52575,27.52575 0 0 1 83.155023,102.27571 27.52575,27.52575 0 0 1 55.629053,74.750254 27.52575,27.52575 0 0 1 83.155023,47.224287 Z"
       id="circle4603"
       inkscape:connector-curvature="0" />
    <g
       transform="translate(-22.678572,-48.380945)"
       id="g5389"
       style="stroke:#000000"
       mask="none"
       clip-path="url(#clipPath5410)">
      <path
         style="fill:#ff0000;stroke:#000000;stroke-width:0.26458332px;stroke-linecap:butt;stroke-linejoin:miter;stroke-opacity:1"
         d="m 105.83333,123.13095 29.95926,-54.211244 27.52255,22.624622 z"
         id="path5381"
         inkscape:connector-curvature="0"
         sodipodi:nodetypes="cccc" />
      <path
         sodipodi:nodetypes="cccc"
         inkscape:connector-curvature="0"
         id="path5383"
         d="m 105.83333,123.13095 54.21124,29.95926 -22.62462,27.52255 z"
         style="fill:#ff0000;stroke:#000000;stroke-width:0.26458332px;stroke-linecap:butt;stroke-linejoin:miter;stroke-opacity:1" />
      <path
         style="fill:#ff0000;stroke:#000000;stroke-width:0.26458332px;stroke-linecap:butt;stroke-linejoin:miter;stroke-opacity:1"
         d="M 105.83333,123.13095 75.87407,177.34219 48.351517,154.71757 Z"
         id="path5385"
         inkscape:connector-curvature="0"
         sodipodi:nodetypes="cccc" />
      <path
         sodipodi:nodetypes="cccc"
         inkscape:connector-curvature="0"
         id="path5387"
         d="M 105.83333,123.13095 51.622096,93.171682 74.246714,65.649129 Z"
         style="fill:#ff0000;stroke:#000000;stroke-width:0.26458332px;stroke-linecap:butt;stroke-linejoin:miter;stroke-opacity:1" />
    </g>
    <path
       inkscape:connector-curvature="0"
       id="path5414"
       d="M 83.155023,35.265842 A 39.484147,39.484147 0 0 0 43.67061,74.750254 39.484147,39.484147 0 0 0 83.155023,114.23415 39.484147,39.484147 0 0 0 122.63892,74.750254 39.484147,39.484147 0 0 0 83.155023,35.265842 Z m 0,11.958445 A 27.52575,27.52575 0 0 1 110.68047,74.750254 27.52575,27.52575 0 0 1 83.155023,102.27571 27.52575,27.52575 0 0 1 55.629052,74.750254 27.52575,27.52575 0 0 1 83.155023,47.224287 Z"
       style="fill:none;stroke:#000000;stroke-width:1.5;stroke-miterlimit:4;stroke-dasharray:none" />
    <text
       xml:space="preserve"
       style="font-style:normal;font-weight:normal;font-size:8.99812222px;line-height:1.25;font-family:sans-serif;letter-spacing:0px;word-spacing:0px;fill:#000000;fill-opacity:1;stroke:none;stroke-width:0.22495304"
       id="text5671"
       x="32.182972"
       y="-27.629257"
       transform="translate(68.060399,0.88033954)"><textPath
         xlink:href="#path5673"
         id="textPath5675"><tspan
   style="stroke-width:0.22495304"
   id="tspan5669">R T N</tspan></textPath></text>
    <path
       style="fill:none;stroke:none;stroke-width:0.26458332px;stroke-linecap:butt;stroke-linejoin:miter;stroke-opacity:1"
       d="m 71.328191,48.199517 c 4.688369,-1.549676 9.526315,-2.80115 11.425065,-2.780597 1.643507,0.01779 7.581821,1.31209 12.103952,2.544362"
       id="path6409"
       inkscape:connector-curvature="0"
       sodipodi:nodetypes="csc" />
  </g>
</svg>
